<svg xmlns="http://www.w3.org/2000/svg" version="1.1" xmlns:xlink="http://www.w3.org/1999/xlink" width="1000" height="1000"><g clip-path="url(#SvgjsClipPath1120)"><rect width="1000" height="1000" fill="#000000"></rect><g transform="matrix(41.666666666666664,0,0,41.666666666666664,0,0)"><svg xmlns="http://www.w3.org/2000/svg" version="1.1" xmlns:xlink="http://www.w3.org/1999/xlink" width="24" height="24"><svg xmlns="http://www.w3.org/2000/svg" viewBox="0 0 24 24"><g fill="none"><path fill="#fff" fill-opacity="1" fill-rule="evenodd" d="M12 19a7 7 0 1 0 0-14a7 7 0 0 0 0 14M10.087 7.38A5 5 0 0 1 12 7a.5.5 0 0 0 0-1a6 6 0 0 0-6 6a.5.5 0 0 0 1 0a5 5 0 0 1 3.087-4.62" clip-rule="evenodd"></path><path stroke="#fff" stroke-linecap="round" d="M20.5 20.5L17 17" stroke-width="1"></path><circle cx="11" cy="11" r="8.5" stroke="#fff" stroke-width="1"></circle></g></svg></svg></g></g><defs><clipPath id="SvgjsClipPath1120"><rect width="1000" height="1000" x="0" y="0" rx="200" ry="200"></rect></clipPath></defs></svg>